<svg width="447" height="455" viewBox="0 0 447 455" fill="none" xmlns="http://www.w3.org/2000/svg">
<rect width="447" height="455" fill="#011627"/>
<path d="M321.222 299.252H300.984V319.491V344.069C300.984 359.319 300.941 368.721 300.024 375.537C299.216 381.549 298.052 382.663 297.814 382.89C297.806 382.898 297.798 382.905 297.792 382.911C297.786 382.918 297.778 382.925 297.77 382.934C297.543 383.171 296.429 384.336 290.418 385.144C283.601 386.06 274.2 386.103 258.95 386.103H229.37C144.198 386.103 106.053 356.07 87.7944 327.095C68.4623 296.415 68.2392 262.168 68.2392 248.431V190.312C68.2392 145.69 86.316 113.83 112.851 92.8546C139.926 71.4519 176.957 60.5708 214.986 61.2703C253 61.9695 290.218 74.2133 317.534 96.7591C344.382 118.919 362.478 151.606 362.478 195.989V257.997C362.478 272.853 362.437 282.01 361.564 288.667C360.79 294.56 359.669 295.676 359.455 295.888C359.448 295.896 359.442 295.902 359.437 295.907L321.222 299.252ZM321.222 299.252C336.079 299.252 345.236 299.211 351.893 298.338M321.222 299.252L351.893 298.338M351.893 298.338C357.786 297.565 358.902 296.443 359.114 296.23M351.893 298.338L359.114 296.23M359.114 296.23C359.121 296.222 359.128 296.216 359.133 296.21L359.114 296.23ZM359.133 296.21C359.236 296.112 359.337 296.011 359.436 295.908L359.133 296.21Z" stroke="#F6F6F6" stroke-width="40.4773"/>
<path fill-rule="evenodd" clip-rule="evenodd" d="M286 215.886C286 217.606 284.606 219 282.886 219H215.114C213.394 219 212 217.606 212 215.886V182.114C212 180.394 213.394 179 215.114 179H282.886C284.606 179 286 180.394 286 182.114V215.886Z" fill="#F6F6F6"/>
<path fill-rule="evenodd" clip-rule="evenodd" d="M212 215.886C212 217.606 210.606 219 208.886 219H141.114C139.394 219 138 217.606 138 215.886V182.114C138 180.394 139.394 179 141.114 179H208.886C210.606 179 212 180.394 212 182.114V215.886Z" fill="#F6F6F6"/>
<path fill-rule="evenodd" clip-rule="evenodd" d="M273.701 159.532C274.917 160.748 274.917 162.719 273.701 163.935L221.123 216.513C219.907 217.729 217.935 217.729 216.719 216.513L192.838 192.632C191.622 191.416 191.622 189.445 192.838 188.229L245.417 135.651C246.633 134.435 248.604 134.435 249.82 135.651L273.701 159.532Z" fill="#F6F6F6"/>
<path fill-rule="evenodd" clip-rule="evenodd" d="M223.062 210.103C224.278 211.319 224.278 213.29 223.062 214.506L174.486 263.083C173.27 264.299 171.299 264.299 170.083 263.083L146.202 239.202C144.986 237.986 144.986 236.014 146.202 234.798L194.778 186.222C195.994 185.006 197.965 185.006 199.181 186.222L223.062 210.103Z" fill="#F6F6F6"/>
<path fill-rule="evenodd" clip-rule="evenodd" d="M193.809 199C192.089 199 190.695 197.606 190.695 195.886L190.695 130.114C190.695 128.394 192.089 127 193.809 127L227.582 127C229.301 127 230.695 128.394 230.695 130.114L230.695 195.886C230.695 197.606 229.301 199 227.582 199L193.809 199Z" fill="#F6F6F6"/>
<path fill-rule="evenodd" clip-rule="evenodd" d="M172.606 136.336C173.822 135.12 175.794 135.12 177.01 136.336L223.725 183.051C224.941 184.267 224.941 186.239 223.725 187.455L199.844 211.335C198.628 212.551 196.657 212.551 195.441 211.335L148.725 164.62C147.509 163.404 147.509 161.433 148.725 160.217L172.606 136.336Z" fill="#F6F6F6"/>
</svg>
